<svg width="59" height="32" viewBox="0 0 59 32" fill="none" xmlns="http://www.w3.org/2000/svg">
<g clip-path="url(#clip0_6703_34)">
<path fill-rule="evenodd" clip-rule="evenodd" d="M51.0222 20.4703C41.2564 10.3293 31.3028 0 28.1099 0C25.1051 0 15.1515 10.3293 5.38566 20.4703H5.19796C5.19796 20.6586 5.38566 20.6586 5.38566 20.6586H5.57369C7.07593 19.7198 14.0247 14.461 16.8418 14.461C17.781 14.461 19.2832 15.0244 20.9735 15.9632C18.7198 18.2172 16.8418 20.2829 16.6541 20.4706C16.6541 20.6589 16.6541 20.6589 16.8418 20.6589C17.781 20.0952 20.0346 18.4049 22.476 16.9023C25.1048 18.5926 27.7345 20.4706 28.1096 20.6589H28.2976C28.6734 20.4706 31.3025 18.5926 33.9319 16.9023C36.3733 18.4049 38.6269 20.0952 39.5654 20.6589C39.5654 20.6589 39.7535 20.6589 39.7535 20.4706C39.5654 20.2829 37.4998 18.2172 35.2464 15.9632C36.9367 15.0247 38.6269 14.461 39.5654 14.461C42.3829 14.461 49.3316 19.7198 50.8339 20.6586H51.0219C51.0219 20.6586 51.2096 20.6586 51.2096 20.4703H51.0222ZM28.1096 3.38053C29.4245 3.38053 31.4905 4.31968 33.3684 5.4462C32.0539 5.82192 30.1759 7.32449 28.1096 9.20246C26.2317 7.32449 24.166 5.82192 23.0391 5.4462C24.9171 4.31968 26.9831 3.38053 28.1096 3.38053ZM22.476 14.6487C20.5981 12.9584 18.5321 11.4561 17.2172 11.0804C19.2832 9.76588 21.1612 8.82674 22.476 8.82674C23.4149 8.82674 25.1048 9.57786 26.7954 10.517C25.1048 12.0196 22.6637 14.6487 22.476 14.6487ZM28.1096 20.2826C27.7342 19.9072 26.0439 18.0292 23.978 15.9629C25.6682 15.0244 27.1708 14.4606 28.1096 14.4606C29.2365 14.4606 30.739 15.0241 32.4293 15.9629C30.3636 18.0295 28.6737 19.9075 28.1096 20.2826ZM33.9322 14.6487C33.7442 14.6487 31.3028 12.0196 29.6125 10.517C31.3028 9.57786 32.9934 8.82674 33.9322 8.82674C35.059 8.82674 37.1247 9.76588 39.1907 11.0804C37.8758 11.4561 35.8101 12.9584 33.9322 14.6487ZM5.19796 30.8002H1.06631L3.13198 27.4197L5.19796 30.8002ZM-1 32.6778H-0.0608565L0.690267 31.363H5.57337L6.32449 32.6778H7.07561L3.6954 26.6682H2.56855L-1 32.6778ZM14.5881 29.6727V27.4193H18.3444C19.4709 27.4193 19.6589 27.607 19.6589 28.1708V28.7339C19.6589 29.4853 19.2832 29.6727 18.5321 29.6727H14.5881ZM13.837 32.6778H14.5881V30.2365H18.5321C19.2835 30.2365 19.6589 30.4242 19.6589 31.363V32.6778H20.41V31.1753C20.41 30.6122 20.2223 30.2365 19.4709 30.0488C20.0346 29.8604 20.5981 29.6727 20.5981 28.9222V28.3585C20.5981 27.232 20.2223 26.6682 18.5321 26.6682H13.837V32.6778Z" fill="#3B5998"/>
<path d="M27.7341 32.6776H28.4852V26.668H27.7341V32.6776Z" fill="#3B5998"/>
<path fill-rule="evenodd" clip-rule="evenodd" d="M42.006 31.1755C42.006 31.7393 41.8183 31.927 41.0672 31.927H36.7479V29.8607H40.8795C41.631 29.8607 42.006 30.049 42.006 30.8001V31.1755ZM41.8183 28.5465C41.8183 29.1102 41.2549 29.2979 40.8795 29.2979H36.7479V27.4199H40.8795C41.2552 27.4199 41.8183 27.4199 41.8183 27.983V28.5465ZM35.9961 32.6781H41.0669C42.0057 32.6781 42.7575 32.3027 42.7575 31.3632V30.6124C42.7575 29.8607 42.1941 29.4853 41.6306 29.4853C42.3821 29.4853 42.5695 28.9222 42.5695 28.5465V27.9827C42.5695 27.4196 42.1941 26.6685 41.0669 26.6685H35.9961V32.6781ZM55.3401 30.8005H51.3965L53.4625 27.4199L55.3401 30.8005ZM49.3305 32.6781H50.2693L51.0208 31.3632H55.7159L56.467 32.6781H57.4061L53.8379 26.6685H52.8988L49.3305 32.6781ZM57.0304 27.4199C57.0304 27.0445 57.4061 26.6685 57.7818 26.6685C58.3449 26.6685 58.5333 27.0445 58.5333 27.4199C58.5333 27.983 58.3449 28.3588 57.7818 28.3588C57.4061 28.3588 57.0304 27.983 57.0304 27.4199ZM56.8427 27.4199C56.8427 27.983 57.2181 28.5465 57.7815 28.5465C58.3446 28.5465 58.7204 27.9827 58.7204 27.4199C58.7204 27.0445 58.3443 26.4805 57.7815 26.4805C57.2181 26.4801 56.8427 27.0445 56.8427 27.4199ZM57.4061 27.983H57.5938V27.6076H57.7818L58.1572 27.983H58.3449L57.9695 27.6076C58.1572 27.6076 58.3449 27.4199 58.3449 27.2322C58.3449 27.0445 58.1572 26.8562 57.7818 26.8562H57.4061V27.983ZM57.5938 27.4199V27.0445H57.7818C57.9695 27.0445 58.1572 27.0445 58.1572 27.2322C58.1572 27.4199 57.9695 27.4199 57.7818 27.4199H57.5938Z" fill="#3B5998"/>
</g>
<defs>
<clipPath id="clip0_6703_34">
<rect width="59" height="32" fill="white"/>
</clipPath>
</defs>
</svg>
