<svg width="124" height="30" viewBox="0 0 124 30" fill="none" xmlns="http://www.w3.org/2000/svg">
<g clip-path="url(#clip0_6703_35)">
<path d="M7.2987 12.1932C7.32657 22.2654 7.32657 22.4049 7.53024 23.3154C8.38215 27.218 10.1511 29.4202 13.0217 30.1635C13.7255 30.3493 14.1052 30.3679 16.9759 30.4051L20.1428 30.4422V30.2285C20.1336 30.1078 19.9577 28.8255 19.7446 27.3666L19.3464 24.7185L16.3368 24.6628C13.1235 24.6071 12.9013 24.5791 12.0585 24.0773C11.1326 23.5383 10.2064 22.2003 9.82675 20.8625C9.42857 19.4499 9.40089 18.8926 9.40089 10.2419V2H7.26147L7.2987 12.1932Z" fill="#3B5998"/>
<path d="M9.88119 10.7064L9.90906 19.4222L10.1591 20.3327C10.2981 20.8345 10.5203 21.4849 10.6499 21.773C10.8999 22.312 11.5667 23.2784 11.7055 23.2784C11.7427 23.2784 11.8353 22.9159 11.9002 22.4606C12.0019 21.8287 12.0389 19.5616 12.0574 11.8215L12.0945 2H9.85352L9.88119 10.7064Z" fill="#3B5998"/>
<path d="M29.82 9.33201C26.4215 9.66661 23.7175 11.1996 22.3191 13.5878C21.5227 14.9534 21.2079 16.3566 21.282 18.2056C21.3652 20.38 21.9579 21.8667 23.3284 23.3348C25.5879 25.7879 29.6533 26.8564 33.5983 26.0574C36.7746 25.4161 39.275 23.4742 40.3212 20.8447C41.0899 18.9212 41.0528 16.2824 40.2286 14.4054C38.9045 11.367 35.7003 9.48064 31.5795 9.30424C31.0239 9.28566 30.2275 9.29485 29.82 9.33201ZM32.274 13.0674C34.6447 13.6156 36.2745 16.0687 35.9042 18.5124C35.6171 20.3986 34.2836 21.9318 32.4593 22.48C31.7832 22.6843 30.3571 22.6843 29.681 22.48C27.5511 21.8481 26.1621 19.9897 26.1621 17.7691C26.1621 15.6504 27.6716 13.6527 29.6904 13.1138C30.2737 12.9558 31.6813 12.928 32.274 13.0674ZM42.7383 17.5645V25.695L45.2664 25.6764L47.7851 25.6485L47.8129 17.5368L47.8315 9.43429H42.7383V17.5645ZM50.8781 13.3461C49.4335 15.4926 48.2573 17.2951 48.276 17.3414C48.2852 17.388 49.5355 19.2835 51.0448 21.5601L53.7859 25.695H56.8325C58.4995 25.695 59.87 25.6764 59.87 25.6485C59.87 25.6299 58.4995 23.818 56.8325 21.6344C55.1566 19.4509 53.7303 17.5645 53.6656 17.4625C53.5543 17.2767 53.7397 16.9884 56.3139 13.4761C57.8328 11.3856 59.1199 9.62945 59.1569 9.55514C59.2218 9.45286 58.7402 9.43429 56.3696 9.43429H53.5081L50.8781 13.3461ZM61.2774 15.1674C61.3147 20.6959 61.3238 20.9376 61.5092 21.6252C62.2221 24.171 63.8982 25.5184 67.0005 26.0294C68.2044 26.2338 70.3066 26.2895 71.6214 26.1688C75.3533 25.7973 77.3814 24.4313 78.1778 21.7366C78.3259 21.2442 78.3444 20.5938 78.3723 15.3066L78.4 9.43429H73.0198V20.4729L72.7141 21.0582C72.1678 22.127 71.177 22.6751 69.825 22.6658C68.4915 22.6472 67.371 21.9876 66.8987 20.9376L66.6763 20.445L66.6578 14.9628L66.6302 9.48064L63.9444 9.45286L61.2497 9.43429L61.2774 15.1674ZM81.1689 17.5645V25.695H85.2435L85.2527 19.9525C85.262 16.0407 85.2897 14.2938 85.3546 14.4518C85.4101 14.582 86.2065 17.1466 87.1327 20.1663L88.8086 25.6485L91.0034 25.6764L93.189 25.695L93.2907 25.3976C93.4297 24.9329 94.6521 20.9839 95.7077 17.5645C96.2355 15.8733 96.6894 14.4332 96.7356 14.3589C96.7818 14.2846 96.819 16.8028 96.819 19.9525V25.695H100.894V9.43409L97.3098 9.45286L93.7168 9.48064L92.3833 14.2009C91.6516 16.7934 91.0312 18.9026 91.0127 18.884C90.9849 18.8468 88.2993 9.53656 88.2993 9.46206C88.2993 9.44348 86.6974 9.43429 84.7342 9.43429H81.1689V17.5645ZM109.719 9.54576C109.617 9.69438 102.19 25.5462 102.19 25.6299C102.19 25.667 103.412 25.695 104.913 25.695H107.635L108.515 23.4464C109.006 22.2013 109.45 21.0768 109.496 20.9282L109.598 20.6773L112.904 20.6959L116.201 20.7238L116.655 21.8853C116.905 22.5263 117.34 23.6416 117.627 24.3756L118.146 25.695H120.859C122.359 25.695 123.582 25.667 123.582 25.6393C123.582 25.6019 123.146 24.6542 122.609 23.5206C122.081 22.3963 120.377 18.7725 118.822 15.474L116.007 9.48064L112.904 9.45286C110.496 9.43429 109.793 9.46206 109.719 9.54576ZM113.941 14.8793C114.451 16.2079 114.877 17.323 114.877 17.3602C114.877 17.3973 113.978 17.4253 112.876 17.4253C111.774 17.4253 110.895 17.388 110.913 17.3416C111.83 14.935 112.895 12.3427 112.941 12.389C112.969 12.4262 113.423 13.5413 113.942 14.8793H113.941Z" fill="#3B5998"/>
<path d="M6.57632 24.2165C5.73358 24.616 5.24282 24.6717 2.41852 24.6717H-0.192947L-0.609644 27.4778C-0.841185 29.0296 -1.01718 30.3211 -0.998663 30.3585C-0.952278 30.442 4.502 30.4234 5.32623 30.3305C6.69677 30.1819 8.39143 29.42 9.10437 28.6487L9.3174 28.4071L8.93773 27.9145C8.43762 27.2549 7.70616 25.7403 7.44694 24.8112C7.33565 24.4023 7.2154 24.0399 7.18753 24.0121C7.15966 23.975 6.88212 24.0677 6.57632 24.2165Z" fill="#3B5998"/>
</g>
<defs>
<clipPath id="clip0_6703_35">
<rect width="124" height="30" fill="white"/>
</clipPath>
</defs>
</svg>
