<svg width="43" height="27" viewBox="0 0 43 27" fill="none" xmlns="http://www.w3.org/2000/svg">
<g clip-path="url(#clip0_6701_33)">
<rect width="43" height="27" fill="white"/>
<path d="M42.4495 26.8297H42.4164C38.5902 26.8297 33.8931 26.751 32.5754 26.7307L28.5486 19.9897L26.5479 23.4833L26.5834 23.5011L28.6679 24.5802L28.5536 24.6233L22.7343 26.9084L23.1634 22.2392L23.2904 20.8936L25.0372 22.4652C25.7176 21.2541 26.3473 20.1395 26.4641 19.9262C26.6723 19.5682 27.8148 17.6005 28.4953 16.4351C28.513 16.4605 28.5283 16.4884 28.546 16.5164L28.8253 16.9632C29.6479 18.2835 30.5036 19.6647 30.7169 20.01C31.7324 21.6603 32.7226 23.3234 33.6875 24.9991L39.2097 24.9813L34.2283 16.4224L29.2519 7.86863L24.3618 16.4047C24.3535 16.4229 24.3442 16.4407 24.3339 16.458L20.5 23.1736L20.4772 23.2117L20.0938 22.5363L18.6542 19.9973L15.7318 14.9955L12.8704 19.977C12.8626 19.9947 12.8533 20.0117 12.8425 20.0278L8.87407 26.9287L-0.895902 26.9439H-1L-0.636927 26.3117L6.19545 14.3202L6.22338 14.2719L14.8965 -0.966993L14.9168 -1L15.2977 -0.347484L19.4768 6.82765L20.4035 8.42213L22.0463 5.55309L19.8627 4.62637L25.6745 1.83349L25.5297 7.85086L23.6585 6.45189L21.4725 10.2832L20.4162 12.1316L19.3473 10.268L19.294 10.1715L14.96 2.72721L7.82039 15.1885L7.795 15.2393L2.23211 25.093L7.81785 25.0753L11.2429 19.1112C11.2519 19.0944 11.2621 19.0783 11.2734 19.063L15.6887 11.3496L16.1051 12.0249L20.2487 19.0833L20.4772 19.4768L22.1554 16.5443L22.7343 15.5287L22.7648 15.5033L29.2823 4.20236C29.4017 4.41055 29.5362 4.62637 29.6556 4.84726L35.8151 15.5033L42.1981 26.4209L42.4215 26.8068L42.4495 26.8297Z" fill="#3B5998"/>
</g>
<defs>
<clipPath id="clip0_6701_33">
<rect width="43" height="27" fill="white"/>
</clipPath>
</defs>
</svg>
