<svg width="109" height="109" viewBox="0 0 109 109" fill="none" xmlns="http://www.w3.org/2000/svg">
<mask id="mask0_2437_323" style="mask-type:alpha" maskUnits="userSpaceOnUse" x="13" y="8" width="78" height="97">
<path d="M37.6235 104.504L67.5877 57.543L90.7895 27.4968L54.9937 8.94391L59.6284 33.9395L57.147 44.2615L47.5211 55.0955L31.6081 56.1255L13.8673 68.6119L16.0007 74.9386L37.6235 104.504Z" fill="#D9D9D9"/>
</mask>
<g mask="url(#mask0_2437_323)">
<path d="M189.745 127.645L120.674 113.527C120.674 113.527 51.6041 99.4085 51.6057 99.3972C50.663 99.2055 49.7617 98.7669 48.9895 98.0842C46.6581 96.0086 46.4508 92.4362 48.528 90.1097L95.0473 37.6259C95.1201 37.5364 95.188 37.4484 95.2673 37.3621L113.741 16.5201L111.01 15.9611L66.5356 6.87148C65.5621 6.68484 64.6283 6.24633 63.8382 5.54259C61.5068 3.46694 61.2995 -0.105462 63.3751 -2.43684L93.2863 -36.1818C93.3591 -36.2714 93.427 -36.3594 93.5063 -36.4457L121.486 -68.0109L110.634 -100.547L51.9923 -34.3927C51.9146 -34.3015 51.8304 -34.2135 51.7446 -34.1304L-6.69122 31.7973L56.6856 44.7515L72.4541 26.9626C74.5265 24.6215 78.1053 24.4011 80.4448 26.4686C82.7859 28.541 83.0046 32.115 80.9388 34.4593L44.4708 75.6024L46.0095 75.3274C47.3177 75.0922 48.563 75.4257 49.4282 76.2396C49.8568 76.6425 50.1736 77.1482 50.3608 77.7192C50.5544 78.2935 50.6135 78.9348 50.5346 79.601C50.3926 80.7871 49.812 81.9748 48.9058 82.9362C47.9997 83.8976 46.852 84.5447 45.6704 84.7535L29.754 87.6057C28.4458 87.8409 27.2005 87.5074 26.3353 86.6935C25.4749 85.8779 25.0678 84.6547 25.2305 83.337L27.1609 67.2821C27.4544 64.8254 29.5921 62.5653 32.0251 62.1296C33.3334 61.8945 34.5786 62.2279 35.4439 63.0419C36.3091 63.8558 36.7113 65.0806 36.5535 66.3967L36.4052 67.6446L48.0435 54.5167L-18.4539 40.9237C-19.4226 40.7354 -20.3564 40.2969 -21.1514 39.5948C-23.4811 37.524 -23.6885 33.9516 -21.6145 31.6154L43.3039 -41.6256C43.3718 -41.7136 43.4446 -41.8032 43.5238 -41.8895L108.423 -115.108C109.089 -115.977 110.012 -116.663 111.128 -117.034C114.1 -118.025 117.314 -116.42 118.305 -113.448L133.296 -68.5084C134.009 -66.38 133.383 -64.1203 131.878 -62.6533L102.002 -28.9474C101.925 -28.8562 101.84 -28.7682 101.755 -28.6851L78.326 -2.25341L113.26 4.88802L125.258 7.34091C126.326 7.48498 127.363 7.94265 128.228 8.70786C130.57 10.7802 130.788 14.3542 128.722 16.6985L103.758 44.862C103.681 44.9532 103.597 45.0412 103.511 45.1244L63.4821 90.2866L122.965 102.446L182.402 114.598L170.724 79.5818C159.089 77.2235 147.474 74.7335 135.898 72.0843C131.322 71.0364 126.759 69.9625 122.213 68.8074C117.585 67.6362 110.592 66.9427 108.384 63.5625C105.537 59.2002 109.249 55.8724 111.738 53.2066C114.056 50.7282 116.24 48.1058 118.487 45.5594C120.64 43.1206 122.797 40.6752 124.95 38.2364C125.427 37.6906 126.992 35.2116 127.737 35.0742L125.989 35.3873C124.681 35.6224 123.436 35.289 122.57 34.475C122.142 34.0721 121.825 33.5665 121.638 32.9955C121.444 32.4212 121.385 31.7798 121.466 31.1185C121.608 29.9324 122.183 28.7464 123.094 27.7834C124.001 26.822 125.148 26.1748 126.33 25.9661L142.246 23.1139C143.555 22.8787 144.8 23.2122 145.665 24.0261C146.525 24.8417 146.932 26.0648 146.77 27.3826L144.839 43.4374C144.546 45.8942 142.408 48.1543 139.975 48.5899C138.667 48.8251 137.422 48.4916 136.556 47.6777C135.691 46.8637 135.289 45.6389 135.447 44.3228L135.576 43.2602L122.823 57.6474L175.926 69.1124C177.965 69.422 179.765 70.8368 180.465 72.9312C180.465 72.9312 196.269 120.312 196.26 120.316C196.568 121.231 196.641 122.236 196.435 123.248C195.801 126.302 192.808 128.276 189.745 127.645Z" fill="#3B5998"/>
</g>
</svg>
